# xmcd CD database file
#
# Track frame offsets:
#	150
#	36792
#	75776
#	113767
#	155731
#	193442
#	222393
#	263372
#	327642
#
# Disc length: 4716 seconds
#
# Revision: 0
# Processed by: cddbd v1.5.2PL0 Copyright (c) Steve Scherf et al.
# Submitted via: CDex 1.70beta2
#
DISCID=79126a09
DTITLE=spiritup - 5
DYEAR=2008
DGENRE=Jazz
TTITLE0=recardo
TTITLE1=little stupid funk
TTITLE2=things are getting better
TTITLE3=a touch of your lips
TTITLE4=blues in the middle
TTITLE5=my one and only love
TTITLE6=sleepless city
TTITLE7=my little gospel story
TTITLE8=i loves you porgy
EXTD=YEAR: 2008
EXTT0=
EXTT1=
EXTT2=
EXTT3=
EXTT4=
EXTT5=
EXTT6=
EXTT7=
EXTT8=
PLAYORDER=
